# xmcd
#
# Track frame offsets: 
#        150
#        16478
#        33290
#        46227
#        60198
#        76783
#        91267
#        102986
#        118269
#        129385
#        141097
#        156193
#        169767
#        182607
#        191467
#        206486
#        218304
#        253595
#
# Disc length: 4440 seconds
#
# Revision: 2
# Processed by: cddbd v1.5.2PL0 Copyright (c) Steve Scherf et al.
# Submitted via: ExactAudioCopy v1.0b1
#
DISCID=e2115612
DTITLE=Various Artist - Lady Sings The Blues 2 [CD2]
DYEAR=2004
DGENRE=Blues
TTITLE0=Nina Simone - My Baby Just Cares For Me
TTITLE1=Gladys Knight and The Pips - You're The Best Thing That Ever Hap
TTITLE1=pened To Me
TTITLE2=Bobby Gentry - I'll Never Fall In Love Again
TTITLE3=Billie Holiday - The Way You Look Tonight
TTITLE4=Aretha Franklin - Unforgettable
TTITLE5=Sarah Vaughan - All Or Nothing
TTITLE6=Maxine Brown - Oh No Not My Baby
TTITLE7=Peggy Scott - Every Little Bit Hurts
TTITLE8=Nancy Wilson - Here's That Rainy Day
TTITLE9=Sue Raney - September In The Rain
TTITLE10=Julie London - The Thrill Is Gone
TTITLE11=Keely Smith - Someone To Watch Over Me
TTITLE12=Kay Starr - I Cry By Night
TTITLE13=Betty Hutton - Hit The Road To Dreamland
TTITLE14=Billie Holiday and The Teddy Wilson Orchestra - Love Me Or Leav
TTITLE14=e Me
TTITLE15=June Christy - Looking For A Boy (Tip-Toes)
TTITLE16=Sarah Vaughan - In A Sentimental Mood
TTITLE17=Copy Control
EXTD=This is the Second CD of a Two CD Set
EXTT0=
EXTT1=
EXTT2=
EXTT3=
EXTT4=
EXTT5=
EXTT6=
EXTT7=
EXTT8=
EXTT9=
EXTT10=
EXTT11=
EXTT12=
EXTT13=
EXTT14=
EXTT15=
EXTT16=
EXTT17=
PLAYORDER=
